<?xml version="1.0" encoding="UTF-8" standalone="no"?>
<svg width="167px" height="90px" viewBox="0 0 167 90" version="1.1" xmlns="http://www.w3.org/2000/svg" xmlns:xlink="http://www.w3.org/1999/xlink" xmlns:sketch="http://www.bohemiancoding.com/sketch/ns">
    <!-- Generator: Sketch 3.3.1 (12002) - http://www.bohemiancoding.com/sketch -->
    <title>Group</title>
    <desc>Created with Sketch.</desc>
    <defs></defs>
    <g id="Page-1" stroke="none" stroke-width="1" fill="none" fill-rule="evenodd" sketch:type="MSPage">
        <g id="Group" sketch:type="MSLayerGroup">
            <rect id="Rectangle-1" fill="#000000" sketch:type="MSShapeGroup" x="0" y="21" width="167" height="50"></rect>
            <path d="M2.96875,59.921875 C3.04687539,59.6484361 3.11848926,59.3098979 3.18359375,58.90625 C3.24869824,58.5026021 3.30729141,58.0013051 3.359375,57.4023438 C3.41145859,56.8033824 3.4505207,56.0904989 3.4765625,55.2636719 C3.5026043,54.4368448 3.515625,53.4700576 3.515625,52.3632812 L3.515625,39.6484375 C3.515625,38.5416611 3.5026043,37.5748739 3.4765625,36.7480469 C3.4505207,35.9212198 3.41145859,35.2050812 3.359375,34.5996094 C3.30729141,33.9941376 3.24869824,33.4895854 3.18359375,33.0859375 C3.11848926,32.6822896 3.04687539,32.3437514 2.96875,32.0703125 L2.96875,31.9921875 L7.63671875,31.9921875 L7.63671875,32.0703125 C7.55859336,32.3437514 7.48372432,32.6822896 7.41210938,33.0859375 C7.34049443,33.4895854 7.28190127,33.9941376 7.23632812,34.5996094 C7.19075498,35.2050812 7.15169287,35.9212198 7.11914062,36.7480469 C7.08658838,37.5748739 7.0703125,38.5416611 7.0703125,39.6484375 L7.0703125,52.3632812 C7.0703125,53.4700576 7.08658838,54.4368448 7.11914062,55.2636719 C7.15169287,56.0904989 7.19075498,56.8033824 7.23632812,57.4023438 C7.28190127,58.0013051 7.34049443,58.5026021 7.41210938,58.90625 C7.48372432,59.3098979 7.55859336,59.6484361 7.63671875,59.921875 L7.63671875,60 L2.96875,60 L2.96875,59.921875 Z M26.640625,46.8359375 C26.640625,45.9765582 26.5527353,45.2343781 26.3769531,44.609375 C26.201171,43.9843719 25.9472673,43.4667989 25.6152344,43.0566406 C25.2832015,42.6464823 24.8828148,42.3404958 24.4140625,42.1386719 C23.9453102,41.9368479 23.424482,41.8359375 22.8515625,41.8359375 C22.4609355,41.8359375 22.024742,41.9140617 21.5429688,42.0703125 C21.0611955,42.2265633 20.5631536,42.4381497 20.0488281,42.7050781 C19.5345026,42.9720065 19.0201849,43.2812482 18.5058594,43.6328125 C17.9915339,43.9843768 17.5065127,44.3619771 17.0507812,44.765625 C17.0247395,45.1822937 17.0117188,45.6282528 17.0117188,46.1035156 L17.0117188,47.6367188 L17.0117188,52.3632812 C17.0117188,53.4700576 17.0247395,54.4368448 17.0507812,55.2636719 C17.076823,56.0904989 17.1158852,56.8033824 17.1679688,57.4023438 C17.2200523,58.0013051 17.2786455,58.5026021 17.34375,58.90625 C17.4088545,59.3098979 17.4804684,59.6484361 17.5585938,59.921875 L17.5585938,60 L13.046875,60 L13.046875,59.921875 C13.1250004,59.6484361 13.1998694,59.3098979 13.2714844,58.90625 C13.3430993,58.5026021 13.4016925,58.0013051 13.4472656,57.4023438 C13.4928388,56.8033824 13.5319009,56.0904989 13.5644531,55.2636719 C13.5970054,54.4368448 13.6132813,53.4700576 13.6132813,52.3632812 L13.6132813,47.6367188 C13.6132813,46.5299424 13.5970054,45.5631552 13.5644531,44.7363281 C13.5319009,43.9095011 13.4928388,43.1966176 13.4472656,42.5976562 C13.4016925,41.9986949 13.3430993,41.4973979 13.2714844,41.09375 C13.1998694,40.6901021 13.1250004,40.3515639 13.046875,40.078125 L13.046875,40 L17.5585938,40 L17.5585938,40.078125 C17.4544266,40.3776057 17.3730472,40.7584612 17.3144531,41.2207031 C17.2558591,41.682945 17.1940107,42.2656215 17.1289062,42.96875 C17.6497422,42.5520813 18.2096324,42.1419291 18.8085938,41.7382812 C19.4075551,41.3346334 20.0227833,40.9765641 20.6542969,40.6640625 C21.2858104,40.3515609 21.9205697,40.0976572 22.5585938,39.9023438 C23.1966178,39.7070303 23.8281219,39.609375 24.453125,39.609375 C25.1953162,39.609375 25.8528617,39.7070303 26.4257812,39.9023438 C26.9987008,40.0976572 27.4999979,40.3645816 27.9296875,40.703125 C28.3593771,41.0416684 28.7207017,41.4387998 29.0136719,41.8945312 C29.3066421,42.3502627 29.5312492,42.8385391 29.6875,43.359375 C30.2213568,42.9036436 30.8040333,42.4511741 31.4355469,42.0019531 C32.0670604,41.5527321 32.7180956,41.1523455 33.3886719,40.8007812 C34.0592481,40.449217 34.7428351,40.1627615 35.4394531,39.9414062 C36.1360712,39.720051 36.8164029,39.609375 37.4804688,39.609375 C38.4960988,39.609375 39.3587204,39.7851545 40.0683594,40.1367188 C40.7779983,40.488283 41.3574196,40.950518 41.8066406,41.5234375 C42.2558616,42.096357 42.5813792,42.7506474 42.7832031,43.4863281 C42.9850271,44.2220089 43.0859375,44.9674441 43.0859375,45.7226562 L43.0859375,52.3632812 C43.0859375,53.4700576 43.0989582,54.4368448 43.125,55.2636719 C43.1510418,56.0904989 43.1901039,56.8033824 43.2421875,57.4023438 C43.2942711,58.0013051 43.3561194,58.5026021 43.4277344,58.90625 C43.4993493,59.3098979 43.5742184,59.6484361 43.6523438,59.921875 L43.6523438,60 L39.1210938,60 L39.1210938,59.921875 C39.1992191,59.6484361 39.2740882,59.3098979 39.3457031,58.90625 C39.4173181,58.5026021 39.4791664,58.0013051 39.53125,57.4023438 C39.5833336,56.8033824 39.6223957,56.0904989 39.6484375,55.2636719 C39.6744793,54.4368448 39.6875,53.4700576 39.6875,52.3632812 L39.6875,46.8359375 C39.6875,45.1171789 39.3424514,43.8541707 38.6523438,43.046875 C37.9622361,42.2395793 37.0377662,41.8359375 35.8789062,41.8359375 C35.4752584,41.8359375 35.0292993,41.9140617 34.5410156,42.0703125 C34.0527319,42.2265633 33.5481797,42.4414049 33.0273438,42.7148438 C32.5065078,42.9882826 31.9856797,43.3040347 31.4648438,43.6621094 C30.9440078,44.0201841 30.4557314,44.4010396 30,44.8046875 C30.0260418,44.9609383 30.0390625,45.1171867 30.0390625,45.2734375 L30.0390625,45.7226562 L30.0390625,52.3632812 C30.0390625,53.4700576 30.0553384,54.4368448 30.0878906,55.2636719 C30.1204429,56.0904989 30.159505,56.8033824 30.2050781,57.4023438 C30.2506513,58.0013051 30.3092444,58.5026021 30.3808594,58.90625 C30.4524743,59.3098979 30.5273434,59.6484361 30.6054688,59.921875 L30.6054688,60 L26.09375,60 L26.09375,59.921875 C26.1718754,59.6484361 26.2434893,59.3098979 26.3085938,58.90625 C26.3736982,58.5026021 26.4322914,58.0013051 26.484375,57.4023438 C26.5364586,56.8033824 26.5755207,56.0904989 26.6015625,55.2636719 C26.6276043,54.4368448 26.640625,53.4700576 26.640625,52.3632812 L26.640625,46.8359375 Z M61.9921875,46.8359375 C61.9921875,45.9765582 61.9042978,45.2343781 61.7285156,44.609375 C61.5527335,43.9843719 61.2988298,43.4667989 60.9667969,43.0566406 C60.634764,42.6464823 60.2343773,42.3404958 59.765625,42.1386719 C59.2968727,41.9368479 58.7760445,41.8359375 58.203125,41.8359375 C57.812498,41.8359375 57.3763045,41.9140617 56.8945312,42.0703125 C56.412758,42.2265633 55.9147161,42.4381497 55.4003906,42.7050781 C54.8860651,42.9720065 54.3717474,43.2812482 53.8574219,43.6328125 C53.3430964,43.9843768 52.8580752,44.3619771 52.4023438,44.765625 C52.376302,45.1822937 52.3632812,45.6282528 52.3632812,46.1035156 L52.3632812,47.6367188 L52.3632812,52.3632812 C52.3632812,53.4700576 52.376302,54.4368448 52.4023438,55.2636719 C52.4283855,56.0904989 52.4674477,56.8033824 52.5195312,57.4023438 C52.5716148,58.0013051 52.630208,58.5026021 52.6953125,58.90625 C52.760417,59.3098979 52.8320309,59.6484361 52.9101562,59.921875 L52.9101562,60 L48.3984375,60 L48.3984375,59.921875 C48.4765629,59.6484361 48.5514319,59.3098979 48.6230469,58.90625 C48.6946618,58.5026021 48.753255,58.0013051 48.7988281,57.4023438 C48.8444013,56.8033824 48.8834634,56.0904989 48.9160156,55.2636719 C48.9485679,54.4368448 48.9648438,53.4700576 48.9648438,52.3632812 L48.9648438,47.6367188 C48.9648438,46.5299424 48.9485679,45.5631552 48.9160156,44.7363281 C48.8834634,43.9095011 48.8444013,43.1966176 48.7988281,42.5976562 C48.753255,41.9986949 48.6946618,41.4973979 48.6230469,41.09375 C48.5514319,40.6901021 48.4765629,40.3515639 48.3984375,40.078125 L48.3984375,40 L52.9101562,40 L52.9101562,40.078125 C52.8059891,40.3776057 52.7246097,40.7584612 52.6660156,41.2207031 C52.6074216,41.682945 52.5455732,42.2656215 52.4804688,42.96875 C53.0013047,42.5520813 53.5611949,42.1419291 54.1601562,41.7382812 C54.7591176,41.3346334 55.3743458,40.9765641 56.0058594,40.6640625 C56.6373729,40.3515609 57.2721322,40.0976572 57.9101562,39.9023438 C58.5481803,39.7070303 59.1796844,39.609375 59.8046875,39.609375 C60.5468787,39.609375 61.2044242,39.7070303 61.7773438,39.9023438 C62.3502633,40.0976572 62.8515604,40.3645816 63.28125,40.703125 C63.7109396,41.0416684 64.0722642,41.4387998 64.3652344,41.8945312 C64.6582046,42.3502627 64.8828117,42.8385391 65.0390625,43.359375 C65.5729193,42.9036436 66.1555958,42.4511741 66.7871094,42.0019531 C67.4186229,41.5527321 68.0696581,41.1523455 68.7402344,40.8007812 C69.4108106,40.449217 70.0943976,40.1627615 70.7910156,39.9414062 C71.4876337,39.720051 72.1679654,39.609375 72.8320312,39.609375 C73.8476613,39.609375 74.7102829,39.7851545 75.4199219,40.1367188 C76.1295608,40.488283 76.7089821,40.950518 77.1582031,41.5234375 C77.6074241,42.096357 77.9329417,42.7506474 78.1347656,43.4863281 C78.3365896,44.2220089 78.4375,44.9674441 78.4375,45.7226562 L78.4375,52.3632812 C78.4375,53.4700576 78.4505207,54.4368448 78.4765625,55.2636719 C78.5026043,56.0904989 78.5416664,56.8033824 78.59375,57.4023438 C78.6458336,58.0013051 78.7076819,58.5026021 78.7792969,58.90625 C78.8509118,59.3098979 78.9257809,59.6484361 79.0039062,59.921875 L79.0039062,60 L74.4726562,60 L74.4726562,59.921875 C74.5507816,59.6484361 74.6256507,59.3098979 74.6972656,58.90625 C74.7688806,58.5026021 74.8307289,58.0013051 74.8828125,57.4023438 C74.9348961,56.8033824 74.9739582,56.0904989 75,55.2636719 C75.0260418,54.4368448 75.0390625,53.4700576 75.0390625,52.3632812 L75.0390625,46.8359375 C75.0390625,45.1171789 74.6940139,43.8541707 74.0039062,43.046875 C73.3137986,42.2395793 72.3893287,41.8359375 71.2304688,41.8359375 C70.8268209,41.8359375 70.3808618,41.9140617 69.8925781,42.0703125 C69.4042944,42.2265633 68.8997422,42.4414049 68.3789062,42.7148438 C67.8580703,42.9882826 67.3372422,43.3040347 66.8164062,43.6621094 C66.2955703,44.0201841 65.8072939,44.4010396 65.3515625,44.8046875 C65.3776043,44.9609383 65.390625,45.1171867 65.390625,45.2734375 L65.390625,45.7226562 L65.390625,52.3632812 C65.390625,53.4700576 65.4069009,54.4368448 65.4394531,55.2636719 C65.4720054,56.0904989 65.5110675,56.8033824 65.5566406,57.4023438 C65.6022138,58.0013051 65.6608069,58.5026021 65.7324219,58.90625 C65.8040368,59.3098979 65.8789059,59.6484361 65.9570312,59.921875 L65.9570312,60 L61.4453125,60 L61.4453125,59.921875 C61.5234379,59.6484361 61.5950518,59.3098979 61.6601562,58.90625 C61.7252607,58.5026021 61.7838539,58.0013051 61.8359375,57.4023438 C61.8880211,56.8033824 61.9270832,56.0904989 61.953125,55.2636719 C61.9791668,54.4368448 61.9921875,53.4700576 61.9921875,52.3632812 L61.9921875,46.8359375 Z M82.6757812,49.9609375 C82.6757812,48.489576 82.949216,47.1256573 83.4960938,45.8691406 C84.0429715,44.6126239 84.7949171,43.52214 85.7519531,42.5976562 C86.7089892,41.6731725 87.8385352,40.9505234 89.140625,40.4296875 C90.4427148,39.9088516 91.8424404,39.6484375 93.3398438,39.6484375 C94.8112053,39.6484375 96.194655,39.8925757 97.4902344,40.3808594 C98.7858138,40.8691431 99.9153598,41.5624955 100.878906,42.4609375 C101.842453,43.3593795 102.600909,44.4531186 103.154297,45.7421875 C103.707685,47.0312564 103.984375,48.4765545 103.984375,50.078125 C103.984375,51.4192775 103.750002,52.7083271 103.28125,53.9453125 C102.812498,55.1822979 102.1224,56.2760369 101.210938,57.2265625 C100.299475,58.1770881 99.1829493,58.935544 97.8613281,59.5019531 C96.5397069,60.0683622 95.0195398,60.3515625 93.3007812,60.3515625 C91.8424406,60.3515625 90.4687564,60.1106795 89.1796875,59.6289062 C87.8906186,59.147133 86.7643277,58.4570357 85.8007812,57.5585938 C84.8372348,56.6601518 84.0755236,55.5696679 83.515625,54.2871094 C82.9557264,53.0045509 82.6757812,51.562508 82.6757812,49.9609375 L82.6757812,49.9609375 Z M93.75,58.9257812 C94.6744838,58.9257812 95.5240847,58.7434914 96.2988281,58.3789062 C97.0735716,58.0143211 97.7408826,57.4869826 98.3007812,56.796875 C98.8606799,56.1067674 99.2968734,55.266932 99.609375,54.2773438 C99.9218766,53.2877555 100.078125,52.167975 100.078125,50.9179688 C100.078125,49.5117117 99.9283869,48.2063862 99.6289062,47.0019531 C99.3294256,45.79752 98.8834665,44.7558638 98.2910156,43.8769531 C97.6985647,42.9980425 96.9531295,42.3112004 96.0546875,41.8164062 C95.1562455,41.3216121 94.1080789,41.0742188 92.9101562,41.0742188 C91.9856725,41.0742188 91.1393268,41.2532534 90.3710938,41.6113281 C89.6028607,41.9694028 88.9355497,42.4869758 88.3691406,43.1640625 C87.8027315,43.8411492 87.3632828,44.671219 87.0507812,45.6542969 C86.7382797,46.6373747 86.5820312,47.7539 86.5820312,49.0039062 C86.5820312,50.4101633 86.7350245,51.7187439 87.0410156,52.9296875 C87.3470067,54.1406311 87.7994762,55.1920528 88.3984375,56.0839844 C88.9973988,56.9759159 89.7428341,57.6725235 90.6347656,58.1738281 C91.5266972,58.6751327 92.5650982,58.9257812 93.75,58.9257812 L93.75,58.9257812 Z M108.359375,47.6367188 C108.359375,46.5299424 108.343099,45.5631552 108.310547,44.7363281 C108.277995,43.9095011 108.238933,43.1966176 108.193359,42.5976562 C108.147786,41.9986949 108.089193,41.4973979 108.017578,41.09375 C107.945963,40.6901021 107.871094,40.3515639 107.792969,40.078125 L107.792969,40 L112.304688,40 L112.304688,40.078125 C112.20052,40.3776057 112.112631,40.7421854 112.041016,41.171875 C111.969401,41.6015646 111.914063,42.1549445 111.875,42.8320312 C112.356773,42.4283834 112.85807,42.031252 113.378906,41.640625 C113.899742,41.249998 114.433591,40.9049494 114.980469,40.6054688 C115.527346,40.3059881 116.083982,40.0651051 116.650391,39.8828125 C117.2168,39.7005199 117.786455,39.609375 118.359375,39.609375 C118.710939,39.609375 119.016926,39.6256509 119.277344,39.6582031 C119.537762,39.6907554 119.772134,39.7363278 119.980469,39.7949219 C120.188803,39.8535159 120.377603,39.9186194 120.546875,39.9902344 C120.716147,40.0618493 120.878905,40.130208 121.035156,40.1953125 L120.078125,43.9257812 L119.746094,43.8476562 C119.589843,43.2747367 119.296877,42.8157569 118.867188,42.4707031 C118.437498,42.1256493 117.851566,41.953125 117.109375,41.953125 C116.705727,41.953125 116.282554,42.0247389 115.839844,42.1679688 C115.397133,42.3111986 114.947919,42.5097644 114.492188,42.7636719 C114.036456,43.0175794 113.580731,43.3105452 113.125,43.6425781 C112.669269,43.974611 112.226565,44.3229148 111.796875,44.6875 C111.770833,45.0651061 111.757812,45.4752582 111.757812,45.9179688 L111.757812,47.3242188 L111.757812,52.3632812 C111.757812,53.4700576 111.770833,54.4368448 111.796875,55.2636719 C111.822917,56.0904989 111.861979,56.8033824 111.914062,57.4023438 C111.966146,58.0013051 112.024739,58.5026021 112.089844,58.90625 C112.154948,59.3098979 112.226562,59.6484361 112.304688,59.921875 L112.304688,60 L107.792969,60 L107.792969,59.921875 C107.871094,59.6484361 107.945963,59.3098979 108.017578,58.90625 C108.089193,58.5026021 108.147786,58.0013051 108.193359,57.4023438 C108.238933,56.8033824 108.277995,56.0904989 108.310547,55.2636719 C108.343099,54.4368448 108.359375,53.4700576 108.359375,52.3632812 L108.359375,47.6367188 Z M131.113281,58.8476562 C131.503908,58.8476562 131.891274,58.7760424 132.275391,58.6328125 C132.659507,58.4895826 133.030597,58.2942721 133.388672,58.046875 C133.746747,57.7994779 134.091795,57.5162776 134.423828,57.1972656 C134.755861,56.8782536 135.065103,56.5429705 135.351562,56.1914062 L135.546875,56.2890625 L134.277344,59.4335938 C134.121093,59.5117191 133.929038,59.6061192 133.701172,59.7167969 C133.473306,59.8274745 133.199871,59.9316401 132.880859,60.0292969 C132.561847,60.1269536 132.187502,60.2115882 131.757812,60.2832031 C131.328123,60.3548181 130.820315,60.390625 130.234375,60.390625 C128.489575,60.390625 127.132166,59.9186245 126.162109,58.9746094 C125.192052,58.0305942 124.707031,56.5559996 124.707031,54.5507812 L124.707031,41.5234375 L121.425781,41.640625 L121.425781,39.921875 C121.829429,39.9479168 122.311195,39.9674479 122.871094,39.9804688 C123.430992,39.9934896 124.042965,40 124.707031,40 C124.69401,39.0755162 124.671224,38.2584671 124.638672,37.5488281 C124.60612,36.8391892 124.567058,36.2207058 124.521484,35.6933594 C124.475911,35.166013 124.420573,34.7200539 124.355469,34.3554688 C124.290364,33.9908836 124.225261,33.6848971 124.160156,33.4375 L124.160156,33.359375 L128.671875,33.359375 L128.671875,33.4375 C128.59375,33.6848971 128.522136,33.9908836 128.457031,34.3554688 C128.391927,34.7200539 128.336589,35.1627578 128.291016,35.6835938 C128.245442,36.2044297 128.20638,36.8196579 128.173828,37.5292969 C128.141276,38.2389358 128.11849,39.0624953 128.105469,40 C128.925785,39.9869791 129.729814,39.9707032 130.517578,39.9511719 C131.305342,39.9316405 132.021481,39.9055991 132.666016,39.8730469 C133.31055,39.8404946 133.85742,39.8079429 134.306641,39.7753906 C134.755862,39.7428384 135.052083,39.7135418 135.195312,39.6875 L134.84375,41.6796875 C134.179684,41.6666666 133.483077,41.6471355 132.753906,41.6210938 C132.128903,41.595052 131.412764,41.5755209 130.605469,41.5625 C129.798173,41.5494791 128.964848,41.5364584 128.105469,41.5234375 L128.105469,54.9609375 C128.105469,55.7682332 128.193358,56.4225235 128.369141,56.9238281 C128.544923,57.4251327 128.772785,57.819009 129.052734,58.1054688 C129.332684,58.3919285 129.651691,58.5872391 130.009766,58.6914062 C130.36784,58.7955734 130.735675,58.8476562 131.113281,58.8476562 L131.113281,58.8476562 Z M137.832031,54.2382812 C137.832031,53.2096303 138.043618,52.3177121 138.466797,51.5625 C138.889976,50.8072879 139.453121,50.1627631 140.15625,49.6289062 C140.859379,49.0950494 141.660152,48.662111 142.558594,48.3300781 C143.457036,47.9980452 144.388016,47.7376312 145.351562,47.5488281 C146.315109,47.3600251 147.26562,47.2298181 148.203125,47.1582031 C149.14063,47.0865882 149.999996,47.0442709 150.78125,47.03125 L150.78125,46.0351562 C150.78125,45.175777 150.670574,44.4335969 150.449219,43.8085938 C150.227863,43.1835906 149.915367,42.6660177 149.511719,42.2558594 C149.108071,41.8457011 148.62305,41.5397146 148.056641,41.3378906 C147.490232,41.1360667 146.868493,41.0351562 146.191406,41.0351562 C145.722654,41.0351562 145.260419,41.0742184 144.804688,41.1523438 C144.348956,41.2304691 143.876956,41.3606762 143.388672,41.5429688 C142.900388,41.7252613 142.38607,41.9726547 141.845703,42.2851562 C141.305336,42.5976578 140.722659,42.9947893 140.097656,43.4765625 L139.902344,43.359375 L141.230469,40.6054688 C141.660158,40.4101553 142.083331,40.2506517 142.5,40.1269531 C142.916669,40.0032546 143.339842,39.9023441 143.769531,39.8242188 C144.199221,39.7460934 144.63867,39.6907554 145.087891,39.6582031 C145.537112,39.6256509 146.009112,39.609375 146.503906,39.609375 C147.871101,39.609375 149.039709,39.775389 150.009766,40.1074219 C150.979823,40.4394548 151.774085,40.8951794 152.392578,41.4746094 C153.011071,42.0540394 153.46354,42.7311159 153.75,43.5058594 C154.03646,44.2806028 154.179688,45.1106727 154.179688,45.9960938 L154.179688,52.3632812 C154.179688,53.4700576 154.195963,54.4368448 154.228516,55.2636719 C154.261068,56.0904989 154.30013,56.8033824 154.345703,57.4023438 C154.391276,58.0013051 154.449869,58.5026021 154.521484,58.90625 C154.593099,59.3098979 154.667968,59.6484361 154.746094,59.921875 L154.746094,60 L150.429688,60 L150.429688,59.921875 C150.494792,59.7135406 150.54362,59.479168 150.576172,59.21875 C150.608724,58.958332 150.638021,58.6458352 150.664062,58.28125 C150.390624,58.5156262 150.068361,58.7565092 149.697266,59.0039062 C149.32617,59.2513033 148.902997,59.4759104 148.427734,59.6777344 C147.952472,59.8795583 147.425133,60.0423171 146.845703,60.1660156 C146.266273,60.2897142 145.631514,60.3515625 144.941406,60.3515625 C142.67577,60.3515625 140.924485,59.8209688 139.6875,58.7597656 C138.450515,57.6985624 137.832031,56.191416 137.832031,54.2382812 L137.832031,54.2382812 Z M150.78125,48.5546875 C149.596348,48.5677084 148.457037,48.6360671 147.363281,48.7597656 C146.269526,48.8834642 145.302739,49.140623 144.462891,49.53125 C143.623043,49.921877 142.952476,50.478512 142.451172,51.2011719 C141.949867,51.9238317 141.699219,52.8841086 141.699219,54.0820312 C141.699219,55.6184973 142.083329,56.7903605 142.851562,57.5976562 C143.619796,58.404952 144.680983,58.8085938 146.035156,58.8085938 C146.660159,58.8085938 147.229815,58.720704 147.744141,58.5449219 C148.258466,58.3691397 148.714191,58.1477878 149.111328,57.8808594 C149.508466,57.613931 149.843749,57.3209651 150.117188,57.0019531 C150.390626,56.6829411 150.598958,56.3736994 150.742188,56.0742188 C150.768229,55.5794246 150.78125,55.0292999 150.78125,54.4238281 L150.78125,52.3632812 L150.78125,48.5546875 Z M160.195312,38.4375 C160.195312,37.3307236 160.179037,36.3639364 160.146484,35.5371094 C160.113932,34.7102823 160.07487,33.9973988 160.029297,33.3984375 C159.983724,32.7994762 159.925131,32.2981791 159.853516,31.8945312 C159.781901,31.4908834 159.707032,31.1523451 159.628906,30.8789062 L159.628906,30.8007812 L164.140625,30.8007812 L164.140625,30.8789062 C164.0625,31.1523451 163.990886,31.4908834 163.925781,31.8945312 C163.860677,32.2981791 163.802084,32.7994762 163.75,33.3984375 C163.697916,33.9973988 163.658854,34.7102823 163.632812,35.5371094 C163.606771,36.3639364 163.59375,37.3307236 163.59375,38.4375 L163.59375,52.3632812 C163.59375,53.4700576 163.606771,54.4368448 163.632812,55.2636719 C163.658854,56.0904989 163.697916,56.8033824 163.75,57.4023438 C163.802084,58.0013051 163.860677,58.5026021 163.925781,58.90625 C163.990886,59.3098979 164.0625,59.6484361 164.140625,59.921875 L164.140625,60 L159.628906,60 L159.628906,59.921875 C159.707032,59.6484361 159.781901,59.3098979 159.853516,58.90625 C159.925131,58.5026021 159.983724,58.0013051 160.029297,57.4023438 C160.07487,56.8033824 160.113932,56.0904989 160.146484,55.2636719 C160.179037,54.4368448 160.195312,53.4700576 160.195312,52.3632812 L160.195312,38.4375 Z" id="Immortal" fill="#FFFFFF" sketch:type="MSShapeGroup"></path>
            <path d="M5.18554688,15 L5.18554688,2.37304688 L0.46875,2.37304688 L0.46875,0.68359375 L11.8164062,0.68359375 L11.8164062,2.37304688 L7.08007812,2.37304688 L7.08007812,15 L5.18554688,15 Z M13.8183594,15 L13.8183594,0.68359375 L15.7128906,0.68359375 L15.7128906,6.5625 L23.1542969,6.5625 L23.1542969,0.68359375 L25.0488281,0.68359375 L25.0488281,15 L23.1542969,15 L23.1542969,8.25195312 L15.7128906,8.25195312 L15.7128906,15 L13.8183594,15 Z M28.2421875,15 L28.2421875,0.68359375 L38.59375,0.68359375 L38.59375,2.37304688 L30.1367188,2.37304688 L30.1367188,6.7578125 L38.0566406,6.7578125 L38.0566406,8.4375 L30.1367188,8.4375 L30.1367188,13.3105469 L38.9257812,13.3105469 L38.9257812,15 L28.2421875,15 Z" id="THE" fill="#0A0A08" sketch:type="MSShapeGroup"></path>
            <path d="M108.042969,89 L104.244141,74.6835938 L106.1875,74.6835938 L108.365234,84.0683594 C108.599611,85.0514372 108.801431,86.0279899 108.970703,86.9980469 C109.335288,85.4680913 109.55013,84.5859387 109.615234,84.3515625 L112.339844,74.6835938 L114.625,74.6835938 L116.675781,81.9296875 C117.190107,83.7265715 117.561197,85.4160077 117.789062,86.9980469 C117.971355,86.0930944 118.208983,85.0546934 118.501953,83.8828125 L120.748047,74.6835938 L122.652344,74.6835938 L118.726562,89 L116.900391,89 L113.882812,78.0917969 C113.628905,77.180334 113.479167,76.6204437 113.433594,76.4121094 C113.283853,77.0696647 113.143881,77.629555 113.013672,78.0917969 L109.976562,89 L108.042969,89 Z M123.84375,82.0273438 C123.84375,79.6510298 124.481764,77.7906968 125.757812,76.4462891 C127.033861,75.1018813 128.680979,74.4296875 130.699219,74.4296875 C132.02084,74.4296875 133.212234,74.7454396 134.273438,75.3769531 C135.334641,76.0084667 136.143552,76.8889917 136.700195,78.0185547 C137.256839,79.1481176 137.535156,80.4290293 137.535156,81.8613281 C137.535156,83.3131583 137.24219,84.6119734 136.65625,85.7578125 C136.07031,86.9036516 135.24024,87.7711559 134.166016,88.3603516 C133.091792,88.9495472 131.932949,89.2441406 130.689453,89.2441406 C129.34179,89.2441406 128.137375,88.918623 127.076172,88.2675781 C126.014969,87.6165332 125.21094,86.7278702 124.664062,85.6015625 C124.117185,84.4752548 123.84375,83.2838604 123.84375,82.0273438 L123.84375,82.0273438 Z M125.796875,82.0566406 C125.796875,83.7819097 126.260738,85.1409456 127.188477,86.1337891 C128.116216,87.1266326 129.279941,87.6230469 130.679688,87.6230469 C132.105476,87.6230469 133.278967,87.1217498 134.200195,86.1191406 C135.121424,85.1165314 135.582031,83.6940196 135.582031,81.8515625 C135.582031,80.6861921 135.385093,79.6689497 134.991211,78.7998047 C134.597329,77.9306597 134.021163,77.2568383 133.262695,76.7783203 C132.504228,76.2998023 131.653,76.0605469 130.708984,76.0605469 C129.367832,76.0605469 128.213872,76.5211542 127.24707,77.4423828 C126.280269,78.3636114 125.796875,79.9016819 125.796875,82.0566406 L125.796875,82.0566406 Z M140.005859,89 L140.005859,74.6835938 L146.353516,74.6835938 C147.629564,74.6835938 148.599606,74.8121732 149.263672,75.0693359 C149.927738,75.3264987 150.458331,75.7805957 150.855469,76.4316406 C151.252606,77.0826855 151.451172,77.8020794 151.451172,78.5898438 C151.451172,79.6054738 151.122399,80.4615851 150.464844,81.1582031 C149.807288,81.8548212 148.791674,82.2975251 147.417969,82.4863281 C147.919273,82.7272147 148.300129,82.9648426 148.560547,83.1992188 C149.113935,83.7070338 149.638018,84.3417931 150.132812,85.1035156 L152.623047,89 L150.240234,89 L148.345703,86.0214844 C147.792315,85.1621051 147.33659,84.5045596 146.978516,84.0488281 C146.620441,83.5930967 146.299806,83.2740895 146.016602,83.0917969 C145.733397,82.9095043 145.445314,82.7825524 145.152344,82.7109375 C144.937499,82.6653644 144.58594,82.6425781 144.097656,82.6425781 L141.900391,82.6425781 L141.900391,89 L140.005859,89 Z M141.900391,81.0019531 L145.972656,81.0019531 C146.838546,81.0019531 147.515623,80.9124358 148.003906,80.7333984 C148.49219,80.5543611 148.86328,80.2679056 149.117188,79.8740234 C149.371095,79.4801413 149.498047,79.0520856 149.498047,78.5898438 C149.498047,77.912757 149.252281,77.356122 148.760742,76.9199219 C148.269203,76.4837218 147.492844,76.265625 146.431641,76.265625 L141.900391,76.265625 L141.900391,81.0019531 Z M154.341797,89 L154.341797,74.6835938 L156.236328,74.6835938 L156.236328,81.7832031 L163.345703,74.6835938 L165.914062,74.6835938 L159.908203,80.484375 L166.177734,89 L163.677734,89 L158.580078,81.7539062 L156.236328,84.0390625 L156.236328,89 L154.341797,89 Z" id="WORK" fill="#0A0A08" sketch:type="MSShapeGroup"></path>
        </g>
    </g>
</svg>